<?xml version="1.0" encoding="UTF-8"?>
<svg xmlns="http://www.w3.org/2000/svg" xmlns:xlink="http://www.w3.org/1999/xlink" width="85pt" height="39pt" viewBox="0 0 85 39" version="1.1">
<g id="surface1">
<path style=" stroke:none;fill-rule:evenodd;fill:rgb(38.039216%,38.039216%,38.039216%);fill-opacity:1;" d="M 0 4.886719 L 0.167969 7.585938 C 2.1875 8.613281 4.191406 9.648438 6.269531 10.742188 C 8.359375 11.835938 10.664062 12.75 12.539062 14.09375 C 14.375 15.421875 16.496094 16.636719 17.320312 18.703125 C 18.105469 20.769531 18.105469 23.292969 17.320312 26.40625 L 14.761719 29.058594 L 14.679688 32.160156 L 19.464844 33.410156 C 20.8125 33.105469 22.398438 32.957031 24.25 33.007812 C 26.09375 33.039062 28.820312 33.199219 30.511719 33.660156 C 32.1875 34.113281 33.363281 35.113281 34.226562 35.765625 C 35.054688 36.417969 35.507812 36.980469 35.550781 37.515625 L 41.074219 38.964844 L 56.910156 29.261719 L 56.742188 25.953125 C 55.96875 25.730469 55.265625 25.496094 54.59375 25.253906 C 53.90625 25 53.289062 24.738281 52.699219 24.453125 C 58.359375 24.707031 63.0625 24.808594 67.136719 24.703125 C 71.175781 24.574219 74.027344 24.242188 76.785156 23.855469 C 79.507812 23.472656 82 22.820312 83.382812 22.449219 C 84.730469 22.070312 85.199219 21.859375 84.949219 21.550781 C 84.664062 21.207031 84.210938 21.117188 81.8125 20.449219 C 79.339844 19.757812 73.65625 18.289062 70.515625 17.496094 C 67.386719 16.703125 65.03125 16.136719 63.253906 15.746094 L 63.253906 14.394531 L 57.980469 13.148438 L 57.980469 11.144531 L 10.804688 0.0351562 C 7.210938 1.652344 3.605469 3.269531 0.00390625 4.886719 Z M 0 4.886719 "/>
<path style=" stroke:none;fill-rule:evenodd;fill:rgb(63.137255%,63.137255%,63.137255%);fill-opacity:1;" d="M 0.90625 5.289062 L 48.746094 16.75 L 57.5625 11.441406 C 55.777344 12.449219 54.144531 13.214844 52.53125 13.792969 C 50.941406 14.363281 50.269531 14.871094 47.996094 14.847656 C 45.683594 14.789062 44.234375 14.636719 38.761719 13.542969 C 33.195312 12.414062 21.460938 9.6875 15.097656 8.289062 C 8.742188 6.90625 4.097656 5.917969 0.90625 5.289062 Z M 0.90625 5.289062 "/>
<path style=" stroke:none;fill-rule:evenodd;fill:rgb(63.137255%,63.137255%,63.137255%);fill-opacity:1;" d="M 58.058594 13.644531 C 55.835938 14.9375 54.292969 15.886719 53.363281 16.5 C 52.441406 17.105469 52.125 17.042969 52.535156 17.296875 C 52.910156 17.535156 54.679688 17.917969 55.667969 17.949219 C 56.640625 17.957031 57.488281 17.777344 58.308594 17.398438 L 56.742188 18.601562 L 50.230469 17.449219 L 56.660156 13.746094 C 57.117188 13.71875 57.589844 13.683594 58.058594 13.644531 Z M 58.058594 13.644531 "/>
<path style=" stroke:none;fill-rule:evenodd;fill:rgb(63.137255%,63.137255%,63.137255%);fill-opacity:1;" d="M 60.867188 18.050781 C 59.441406 17.972656 58.621094 18.125 58.140625 18.445312 C 57.632812 18.773438 57.421875 19.574219 57.898438 19.953125 C 58.367188 20.308594 58.886719 20.3125 60.949219 20.597656 C 63.011719 20.878906 66.289062 21.375 70.105469 21.601562 C 73.910156 21.804688 81.789062 21.972656 83.464844 21.851562 C 85.050781 21.722656 82.5625 21.351562 79.753906 20.851562 C 76.902344 20.328125 69.921875 19.320312 66.726562 18.847656 C 63.558594 18.375 62.285156 18.117188 60.867188 18.050781 Z M 60.867188 18.050781 "/>
<path style=" stroke:none;fill-rule:evenodd;fill:rgb(12.941176%,12.941176%,12.941176%);fill-opacity:1;" d="M 14.679688 6.539062 L 18.476562 4.9375 L 14.679688 3.988281 L 10.972656 5.640625 Z M 14.679688 6.539062 "/>
<path style=" stroke:none;fill-rule:evenodd;fill:rgb(12.941176%,12.941176%,12.941176%);fill-opacity:1;" d="M 57.980469 11.289062 L 48.902344 16.75 C 48.683594 18.277344 48.601562 19.582031 48.746094 20.75 C 48.851562 21.90625 49.457031 23.417969 49.648438 23.65625 C 49.824219 23.867188 49.765625 23.117188 49.894531 22.105469 C 49.992188 21.082031 50.144531 19.605469 50.3125 17.597656 L 57.730469 13.097656 C 57.8125 12.496094 57.894531 11.898438 57.980469 11.292969 Z M 57.980469 11.289062 "/>
<path style=" stroke:none;fill-rule:evenodd;fill:rgb(12.941176%,12.941176%,12.941176%);fill-opacity:1;" d="M 58.140625 17.597656 L 56.660156 18.703125 C 56.609375 19.757812 56.675781 20.441406 56.828125 20.800781 C 56.96875 21.132812 57.386719 21.132812 57.5625 20.800781 C 57.714844 20.460938 57.464844 19.328125 57.816406 18.847656 C 58.125 18.359375 59.492188 18.152344 59.550781 17.949219 C 59.601562 17.734375 59.128906 17.617188 58.140625 17.597656 Z M 58.140625 17.597656 "/>
<path style=" stroke:none;fill-rule:evenodd;fill:rgb(12.941176%,12.941176%,12.941176%);fill-opacity:1;" d="M 62.675781 14.648438 C 61.710938 15.324219 61.21875 15.75 61.191406 15.949219 C 61.167969 16.132812 62.148438 15.828125 62.515625 15.796875 C 62.859375 15.757812 63.144531 15.746094 63.339844 15.746094 L 63.171875 14.445312 C 63.007812 14.511719 62.84375 14.574219 62.675781 14.648438 Z M 62.675781 14.648438 "/>
<path style=" stroke:none;fill-rule:evenodd;fill:rgb(12.941176%,12.941176%,12.941176%);fill-opacity:1;" d="M 39.664062 30.359375 C 39.714844 29.707031 39.792969 29.144531 40.246094 28.507812 C 40.648438 27.867188 41.074219 27.214844 42.304688 26.554688 C 43.5625 25.867188 47.527344 24.6875 47.671875 24.503906 C 47.730469 24.328125 44.351562 25.035156 42.96875 25.507812 C 41.585938 25.972656 40.269531 26.527344 39.507812 27.308594 C 38.742188 28.070312 38.375 29.265625 38.433594 30.109375 C 38.507812 30.9375 39.589844 32.261719 39.832031 32.3125 C 40.011719 32.339844 39.609375 31 39.667969 30.359375 Z M 39.664062 30.359375 "/>
<path style=" stroke:none;fill-rule:evenodd;fill:rgb(12.941176%,12.941176%,12.941176%);fill-opacity:1;" d="M 52.617188 24.652344 L 56.488281 26.054688 L 44.535156 33.609375 C 44.359375 32.496094 44.535156 31.519531 45.03125 30.660156 C 45.523438 29.792969 46.898438 29.066406 47.503906 28.457031 C 48.082031 27.832031 47.832031 27.347656 48.492188 27.007812 C 49.136719 26.660156 50.875 26.652344 51.300781 26.40625 C 51.6875 26.140625 50.65625 25.796875 50.890625 25.507812 C 51.105469 25.210938 51.691406 24.925781 52.621094 24.652344 Z M 52.617188 24.652344 "/>
<path style=" stroke:none;fill-rule:evenodd;fill:rgb(12.941176%,12.941176%,12.941176%);fill-opacity:1;" d="M 10.3125 2.035156 C 10.3125 2.394531 11.105469 2.683594 12.085938 2.683594 C 13.058594 2.683594 13.855469 2.394531 13.855469 2.035156 C 13.855469 1.675781 13.058594 1.382812 12.085938 1.382812 C 11.105469 1.382812 10.3125 1.675781 10.3125 2.035156 Z M 10.3125 2.035156 "/>
<path style=" stroke:none;fill-rule:evenodd;fill:rgb(12.941176%,12.941176%,12.941176%);fill-opacity:1;" d="M 15.1875 29.285156 C 16.429688 28.054688 17.578125 27.242188 18.703125 26.867188 C 19.800781 26.484375 20.460938 26.941406 21.820312 26.984375 C 23.160156 27.007812 26.671875 26.714844 26.789062 27.039062 C 26.867188 27.371094 23.429688 28.320312 22.398438 28.929688 C 21.351562 29.527344 20.746094 30.066406 20.554688 30.589844 C 18.769531 30.15625 16.980469 29.722656 15.1875 29.285156 Z M 15.1875 29.285156 "/>
</g>
</svg>
