<?xml version="1.0" encoding="UTF-8"?>
<svg xmlns="http://www.w3.org/2000/svg" xmlns:xlink="http://www.w3.org/1999/xlink" width="414pt" height="72pt" viewBox="0 0 414 72" version="1.1">
<g id="surface1">
<path style=" stroke:none;fill-rule:nonzero;fill:rgb(100%,100%,100%);fill-opacity:1;" d="M 412.851562 64.640625 C 412.851562 68.59375 394.414062 71.800781 371.679688 71.800781 L 42.320312 71.800781 C 19.582031 71.800781 1.148438 68.59375 1.148438 64.640625 L 1.148438 7.359375 C 1.148438 3.40625 19.582031 0.199219 42.324219 0.199219 L 371.683594 0.199219 C 394.417969 0.199219 412.851562 3.40625 412.851562 7.359375 Z M 412.851562 64.640625 "/>
<path style=" stroke:none;fill-rule:nonzero;fill:rgb(0%,0%,0%);fill-opacity:1;" d="M 371.679688 72 L 42.320312 72 C 18.980469 72 0 68.699219 0 64.640625 L 0 7.359375 C 0 3.300781 18.980469 0 42.3125 0 L 371.6875 0 C 395.019531 0 414.003906 3.300781 414.003906 7.359375 L 414.003906 64.640625 C 414.003906 68.699219 395.019531 72 371.6875 72 Z M 411.699219 7.363281 C 411.699219 3.515625 393.78125 0.402344 371.667969 0.402344 L 42.332031 0.402344 C 20.21875 0.402344 2.300781 3.515625 2.300781 7.363281 L 2.300781 64.640625 C 2.300781 68.484375 20.21875 71.601562 42.328125 71.601562 L 371.675781 71.601562 C 393.78125 71.601562 411.695312 68.484375 411.695312 64.636719 L 411.695312 7.363281 Z M 411.699219 7.363281 "/>
<path style=" stroke:none;fill-rule:nonzero;fill:rgb(0%,0%,0%);fill-opacity:1;" d="M 303.507812 22.757812 C 302 18.128906 291.648438 14.214844 273.300781 11.390625 C 255.742188 8.6875 232.199219 7.199219 207.003906 7.199219 C 181.808594 7.199219 158.265625 8.6875 140.707031 11.390625 C 122.363281 14.214844 112.011719 18.128906 110.5 22.757812 C 99.152344 23.554688 91.085938 25.480469 91.085938 27.722656 L 91.085938 59.445312 C 91.085938 62.394531 104.996094 64.800781 121.996094 64.800781 L 292.015625 64.800781 C 309.015625 64.800781 322.925781 62.390625 322.925781 59.445312 L 322.925781 27.722656 C 322.925781 25.480469 314.851562 23.554688 303.515625 22.757812 Z M 229.296875 52.570312 C 230.226562 53.515625 226.449219 54.289062 220.90625 54.289062 L 193.101562 54.289062 C 187.558594 54.289062 183.78125 53.515625 184.710938 52.570312 L 192.027344 45.113281 C 184.472656 44.265625 179.46875 42.792969 179.46875 41.117188 C 179.46875 38.480469 191.796875 36.347656 207.003906 36.347656 C 222.210938 36.347656 234.539062 38.480469 234.539062 41.117188 C 234.539062 42.792969 229.535156 44.265625 221.984375 45.113281 L 229.320312 52.570312 Z M 127.867188 22.367188 C 132.207031 14.003906 170.890625 10.171875 206.996094 10.171875 C 227.980469 10.171875 247.472656 11.394531 261.886719 13.613281 C 275.984375 15.785156 284.277344 18.789062 286.140625 22.367188 L 127.863281 22.367188 Z M 127.867188 22.367188 "/>
</g>
</svg>
