<?xml version="1.0" encoding="UTF-8"?>
<svg xmlns="http://www.w3.org/2000/svg" xmlns:xlink="http://www.w3.org/1999/xlink" width="16pt" height="17pt" viewBox="0 0 16 17" version="1.1">
<g id="surface1">
<path style=" stroke:none;fill-rule:nonzero;fill:rgb(100%,100%,100%);fill-opacity:1;" d="M 15.957031 15.261719 C 15.957031 16.195312 15.242188 16.953125 14.363281 16.953125 L 1.636719 16.953125 C 0.757812 16.953125 0.0429688 16.195312 0.0429688 15.261719 L 0.0429688 1.738281 C 0.0429688 0.804688 0.757812 0.046875 1.636719 0.046875 L 14.363281 0.046875 C 15.242188 0.046875 15.957031 0.804688 15.957031 1.738281 Z M 15.957031 15.261719 "/>
<path style=" stroke:none;fill-rule:nonzero;fill:rgb(0%,0%,0%);fill-opacity:1;" d="M 14.363281 17 L 1.636719 17 C 0.734375 17 0 16.21875 0 15.261719 L 0 1.738281 C 0 0.78125 0.734375 0 1.636719 0 L 14.363281 0 C 15.265625 0 16 0.78125 16 1.738281 L 16 15.261719 C 16 16.21875 15.265625 17 14.363281 17 Z M 15.910156 1.738281 C 15.910156 0.832031 15.21875 0.09375 14.363281 0.09375 L 1.636719 0.09375 C 0.78125 0.09375 0.0898438 0.832031 0.0898438 1.738281 L 0.0898438 15.261719 C 0.0898438 16.167969 0.78125 16.90625 1.636719 16.90625 L 14.363281 16.90625 C 15.21875 16.90625 15.910156 16.167969 15.910156 15.261719 Z M 15.910156 1.738281 "/>
<path style=" stroke:none;fill-rule:nonzero;fill:rgb(0%,0%,0%);fill-opacity:1;" d="M 11.730469 5.375 C 11.671875 4.28125 11.269531 3.355469 10.5625 2.6875 C 9.882812 2.050781 8.972656 1.699219 8 1.699219 C 7.027344 1.699219 6.117188 2.050781 5.4375 2.691406 C 4.730469 3.355469 4.328125 4.28125 4.269531 5.375 C 3.832031 5.5625 3.519531 6.015625 3.519531 6.546875 L 3.519531 14.035156 C 3.519531 14.730469 4.058594 15.300781 4.714844 15.300781 L 11.285156 15.300781 C 11.941406 15.300781 12.480469 14.730469 12.480469 14.035156 L 12.480469 6.546875 C 12.480469 6.015625 12.167969 5.5625 11.730469 5.375 Z M 8.863281 12.414062 C 8.898438 12.636719 8.75 12.820312 8.539062 12.820312 L 7.464844 12.820312 C 7.25 12.820312 7.101562 12.636719 7.136719 12.414062 L 7.421875 10.652344 C 7.128906 10.453125 6.9375 10.105469 6.9375 9.707031 C 6.9375 9.085938 7.414062 8.582031 8 8.582031 C 8.585938 8.582031 9.0625 9.085938 9.0625 9.707031 C 9.0625 10.105469 8.871094 10.453125 8.578125 10.652344 L 8.863281 12.410156 Z M 4.941406 5.28125 C 5.109375 3.308594 6.605469 2.402344 8 2.402344 C 8.8125 2.402344 9.5625 2.691406 10.121094 3.214844 C 10.667969 3.726562 10.988281 4.4375 11.058594 5.28125 Z M 4.941406 5.28125 "/>
</g>
</svg>
