<?xml version="1.0" encoding="UTF-8"?>
<svg xmlns="http://www.w3.org/2000/svg" xmlns:xlink="http://www.w3.org/1999/xlink" width="160pt" height="28pt" viewBox="0 0 160 28" version="1.1">
<g id="surface1">
<path style=" stroke:none;fill-rule:nonzero;fill:rgb(100%,100%,100%);fill-opacity:1;" d="M 159.554688 25.136719 C 159.554688 26.675781 152.429688 27.921875 143.644531 27.921875 L 16.355469 27.921875 C 7.570312 27.921875 0.445312 26.675781 0.445312 25.136719 L 0.445312 2.863281 C 0.445312 1.324219 7.570312 0.078125 16.355469 0.078125 L 143.644531 0.078125 C 152.433594 0.078125 159.554688 1.324219 159.554688 2.863281 Z M 159.554688 25.136719 "/>
<path style=" stroke:none;fill-rule:nonzero;fill:rgb(0%,0%,0%);fill-opacity:1;" d="M 143.644531 28 L 16.355469 28 C 7.335938 28 0 26.714844 0 25.136719 L 0 2.863281 C 0 1.285156 7.335938 0 16.351562 0 L 143.648438 0 C 152.664062 0 160.003906 1.285156 160.003906 2.863281 L 160.003906 25.136719 C 160.003906 26.714844 152.664062 28 143.648438 28 Z M 159.109375 2.863281 C 159.109375 1.367188 152.1875 0.15625 143.640625 0.15625 L 16.359375 0.15625 C 7.816406 0.15625 0.890625 1.367188 0.890625 2.863281 L 0.890625 25.136719 C 0.890625 26.632812 7.816406 27.84375 16.359375 27.84375 L 143.644531 27.84375 C 152.183594 27.84375 159.109375 26.632812 159.109375 25.136719 Z M 159.109375 2.863281 "/>
<path style=" stroke:none;fill-rule:nonzero;fill:rgb(0%,0%,0%);fill-opacity:1;" d="M 117.296875 8.851562 C 116.714844 7.050781 112.714844 5.527344 105.625 4.429688 C 98.835938 3.378906 89.738281 2.800781 80 2.800781 C 70.265625 2.800781 61.164062 3.378906 54.378906 4.429688 C 47.289062 5.527344 43.289062 7.050781 42.707031 8.851562 C 38.320312 9.160156 35.203125 9.910156 35.203125 10.78125 L 35.203125 23.117188 C 35.203125 24.265625 40.578125 25.199219 47.148438 25.199219 L 112.855469 25.199219 C 119.425781 25.199219 124.800781 24.261719 124.800781 23.117188 L 124.800781 10.78125 C 124.800781 9.910156 121.683594 9.160156 117.300781 8.851562 Z M 88.617188 20.445312 C 88.976562 20.8125 87.515625 21.113281 85.375 21.113281 L 74.628906 21.113281 C 72.484375 21.113281 71.027344 20.8125 71.386719 20.445312 L 74.210938 17.542969 C 71.292969 17.214844 69.359375 16.640625 69.359375 15.988281 C 69.359375 14.964844 74.125 14.136719 80 14.136719 C 85.878906 14.136719 90.644531 14.964844 90.644531 15.988281 C 90.644531 16.640625 88.707031 17.214844 85.789062 17.542969 L 88.625 20.441406 Z M 49.417969 8.699219 C 51.09375 5.445312 66.046875 3.957031 80 3.957031 C 88.109375 3.957031 95.640625 4.429688 101.210938 5.292969 C 106.660156 6.136719 109.867188 7.308594 110.585938 8.699219 Z M 49.417969 8.699219 "/>
</g>
</svg>
